<svg width="24" height="24" viewBox="0 0 24 24" fill="none" xmlns="http://www.w3.org/2000/svg">
<g clip-path="url(#clip0_772_191)">
<path d="M14.3997 19.3327C14.3997 19.1559 14.3295 18.9863 14.2045 18.8613C14.0795 18.7363 13.9099 18.666 13.7331 18.666H9.73307C9.55626 18.666 9.38669 18.7363 9.26167 18.8613C9.13664 18.9863 9.06641 19.1559 9.06641 19.3327C9.06641 19.5095 9.13664 19.6791 9.26167 19.8041C9.38669 19.9291 9.55626 19.9993 9.73307 19.9993H13.7331C13.9099 19.9993 14.0795 19.9291 14.2045 19.8041C14.3295 19.6791 14.3997 19.5095 14.3997 19.3327Z" fill="black"/>
<path d="M15.027 16H11.027C10.8502 16 10.6806 16.0702 10.5556 16.1953C10.4306 16.3203 10.3604 16.4899 10.3604 16.6667C10.3604 16.8435 10.4306 17.013 10.5556 17.1381C10.6806 17.2631 10.8502 17.3333 11.027 17.3333H15.027C15.2038 17.3333 15.3734 17.2631 15.4984 17.1381C15.6234 17.013 15.6937 16.8435 15.6937 16.6667C15.6937 16.4899 15.6234 16.3203 15.4984 16.1953C15.3734 16.0702 15.2038 16 15.027 16Z" fill="black"/>
<path d="M14.6667 21.334H10.6667C10.4899 21.334 10.3203 21.4042 10.1953 21.5292C10.0702 21.6543 10 21.8238 10 22.0007C10 22.1775 10.0702 22.347 10.1953 22.4721C10.3203 22.5971 10.4899 22.6673 10.6667 22.6673H14.6667C14.8435 22.6673 15.013 22.5971 15.1381 22.4721C15.2631 22.347 15.3333 22.1775 15.3333 22.0007C15.3333 21.8238 15.2631 21.6543 15.1381 21.5292C15.013 21.4042 14.8435 21.334 14.6667 21.334Z" fill="black"/>
<path d="M21.8001 21.334H17.1335C16.9567 21.334 16.7871 21.4042 16.6621 21.5292C16.537 21.6543 16.4668 21.8238 16.4668 22.0007C16.4668 22.1775 16.537 22.347 16.6621 22.4721C16.7871 22.5971 16.9567 22.6673 17.1335 22.6673H21.8001C21.9769 22.6673 22.1465 22.5971 22.2715 22.4721C22.3966 22.347 22.4668 22.1775 22.4668 22.0007C22.4668 21.8238 22.3966 21.6543 22.2715 21.5292C22.1465 21.4042 21.9769 21.334 21.8001 21.334Z" fill="black"/>
<path d="M22.4671 18.666H17.8005C17.6236 18.666 17.4541 18.7363 17.3291 18.8613C17.204 18.9863 17.1338 19.1559 17.1338 19.3327C17.1338 19.5095 17.204 19.6791 17.3291 19.8041C17.4541 19.9291 17.6236 19.9993 17.8005 19.9993H22.4671C22.6439 19.9993 22.8135 19.9291 22.9385 19.8041C23.0636 19.6791 23.1338 19.5095 23.1338 19.3327C23.1338 19.1559 23.0636 18.9863 22.9385 18.8613C22.8135 18.7363 22.6439 18.666 22.4671 18.666Z" fill="black"/>
<path d="M22.4934 17.334C22.298 14.9866 21.6601 12.6975 20.6134 10.5873C19.6107 8.68047 18.1659 7.04144 16.4 5.80732L18 2.28065C18.0516 2.17525 18.0745 2.05811 18.0663 1.94105C18.0581 1.82399 18.0191 1.71117 17.9534 1.61399C17.8927 1.52873 17.8128 1.45896 17.7201 1.41032C17.6275 1.36167 17.5247 1.33552 17.42 1.33399H6.53336C6.42129 1.33371 6.31096 1.36169 6.21256 1.41534C6.11416 1.46899 6.03088 1.54659 5.97041 1.64095C5.90994 1.7353 5.87424 1.84339 5.8666 1.9552C5.85895 2.06701 5.87962 2.17894 5.9267 2.28065L7.56003 5.82065C5.8065 7.05537 4.37152 8.68915 3.37336 10.5873C1.94003 13.254 1.49336 16.514 1.37336 18.774C1.35371 19.1048 1.4028 19.4362 1.51754 19.7471C1.63228 20.0581 1.81018 20.3419 2.04003 20.5807C2.28182 20.815 2.5679 20.9988 2.88154 21.1212C3.19518 21.2437 3.53009 21.3024 3.8667 21.294H8.00003V20.0007H3.81336C3.66249 20.0002 3.51326 19.9692 3.37464 19.9097C3.23602 19.8501 3.11087 19.7631 3.0067 19.654C2.90237 19.5457 2.82179 19.4169 2.77013 19.2757C2.71847 19.1345 2.69687 18.984 2.7067 18.834C2.80003 17.094 3.1667 13.7807 4.5467 11.2007C5.51952 9.35206 6.95805 7.78943 8.72003 6.66732H9.3867C8.93515 7.29244 8.51894 7.94235 8.14003 8.61399C7.7549 9.32908 7.42721 10.0736 7.16003 10.8407L8.07336 11.454C8.3432 10.658 8.67534 9.88448 9.0667 9.14065C9.54705 8.27563 10.0931 7.44875 10.7 6.66732H11.3667C11.8136 7.73635 12.1292 8.85563 12.3067 10.0007C12.4516 10.8507 12.523 11.7117 12.52 12.574L13.5734 11.834C13.5443 11.1635 13.473 10.4955 13.36 9.83399C13.1804 8.75294 12.8946 7.69225 12.5067 6.66732H13.0267L13.6334 5.33399H8.8067L7.57336 2.66732H16.38L14.7134 6.31399C14.999 6.46716 15.273 6.64095 15.5334 6.83399C17.1673 7.96033 18.5071 9.4624 19.44 11.214C20.375 13.1342 20.9554 15.2075 21.1534 17.334H22.4934Z" fill="black"/>
</g>
<defs>
<clipPath id="clip0_772_191">
<rect width="24" height="24" fill="white"/>
</clipPath>
</defs>
</svg>
