<svg width="26" height="26" viewBox="0 0 26 26" fill="none" xmlns="http://www.w3.org/2000/svg">
<rect width="26" height="26" rx="13" fill="#FF0000"/>
<path d="M13.8661 7.09961L19.6221 17.0689C19.7099 17.221 19.7561 17.3934 19.7561 17.5689C19.7561 17.7445 19.7099 17.9169 19.6221 18.0689C19.5344 18.2209 19.4081 18.3472 19.2561 18.435C19.1041 18.5227 18.9317 18.5689 18.7561 18.5689H7.24412C7.06858 18.5689 6.89614 18.5227 6.74412 18.435C6.59211 18.3472 6.46587 18.2209 6.37811 18.0689C6.29034 17.9169 6.24414 17.7445 6.24414 17.5689C6.24414 17.3934 6.29035 17.221 6.37812 17.0689L12.1341 7.09961C12.5188 6.43294 13.4808 6.43294 13.8661 7.09961ZM13.0001 15.0009C12.8233 15.0009 12.6537 15.0712 12.5287 15.1962C12.4037 15.3212 12.3334 15.4908 12.3334 15.6676C12.3334 15.8444 12.4037 16.014 12.5287 16.139C12.6537 16.264 12.8233 16.3343 13.0001 16.3343C13.1769 16.3343 13.3465 16.264 13.4715 16.139C13.5965 16.014 13.6668 15.8444 13.6668 15.6676C13.6668 15.4908 13.5965 15.3212 13.4715 15.1962C13.3465 15.0712 13.1769 15.0009 13.0001 15.0009ZM13.0001 10.3343C12.8368 10.3343 12.6792 10.3942 12.5572 10.5028C12.4352 10.6113 12.3572 10.7608 12.3381 10.9229L12.3334 11.0009V13.6676C12.3336 13.8375 12.3987 14.001 12.5153 14.1245C12.632 14.2481 12.7914 14.3224 12.961 14.3324C13.1307 14.3423 13.2977 14.2872 13.428 14.1781C13.5583 14.069 13.642 13.9143 13.6621 13.7456L13.6668 13.6676V11.0009C13.6668 10.8241 13.5965 10.6546 13.4715 10.5295C13.3465 10.4045 13.1769 10.3343 13.0001 10.3343Z" fill="white"/>
</svg>
