<svg width="24" height="24" viewBox="0 0 24 24" fill="none" xmlns="http://www.w3.org/2000/svg">
<g filter="url(#filter0_d_772_182)">
<path fill-rule="evenodd" clip-rule="evenodd" d="M4.85852 6.20687C5.03985 6.24287 5.22219 6.26954 5.40552 6.28687C5.41447 6.34654 5.44121 6.40213 5.48224 6.44637C5.52327 6.49062 5.57669 6.52146 5.63552 6.53487C6.04552 6.62887 6.43952 6.78987 6.79852 7.01287C7.13052 7.21687 7.38352 7.52887 7.51452 7.89787C7.55252 8.01054 7.57585 8.12654 7.58452 8.24587V9.34887C7.58265 9.41604 7.59561 9.48279 7.62248 9.54438C7.64936 9.60596 7.68948 9.66086 7.73999 9.70517C7.79051 9.74948 7.85017 9.7821 7.91473 9.80072C7.9793 9.81933 8.04717 9.82348 8.11352 9.81287C8.20432 9.7969 8.28802 9.75342 8.35331 9.68831C8.41859 9.62321 8.4623 9.53963 8.47852 9.44887V8.87087C8.53852 8.67087 8.61819 8.47854 8.71752 8.29387C8.80019 8.11787 8.89952 7.9522 9.01552 7.79687C9.18552 7.59987 9.38752 7.43187 9.61252 7.29987C9.8591 7.15161 10.1146 7.01869 10.3775 6.90187C10.5275 6.83187 10.8855 6.74287 11.0935 6.62387C11.2242 6.56351 11.3374 6.47095 11.4225 6.35487C11.5011 6.25785 11.5388 6.13404 11.5276 6.0097C11.5164 5.88536 11.4572 5.77028 11.3625 5.68887C11.2659 5.59488 11.139 5.53819 11.0045 5.52887C10.849 5.53797 10.6931 5.53797 10.5375 5.52887L10.0095 5.39087C9.84097 5.33217 9.67799 5.25855 9.52252 5.17087C9.17713 5.03162 8.89203 4.77485 8.71752 4.44587C8.54487 4.04879 8.42453 3.63096 8.35952 3.20287C8.33479 3.0861 8.27136 2.9811 8.17952 2.90487C8.07052 2.83487 7.59352 2.69487 7.52352 3.19287V3.80987C7.50617 3.99548 7.46964 4.17879 7.41452 4.35687C7.37452 4.5322 7.31485 4.7012 7.23552 4.86387C7.14495 5.05115 7.01567 5.21707 6.85621 5.35066C6.69676 5.48426 6.51076 5.5825 6.31052 5.63887C5.85952 5.75669 5.38912 5.78052 4.92852 5.70887C4.89557 5.70358 4.8619 5.7049 4.82947 5.71278C4.79704 5.72065 4.7665 5.73492 4.73965 5.75473C4.7128 5.77455 4.69017 5.79952 4.67309 5.82819C4.656 5.85685 4.6448 5.88864 4.64015 5.92168C4.63549 5.95473 4.63748 5.98837 4.64598 6.02064C4.65448 6.05291 4.66933 6.08316 4.68967 6.10963C4.71 6.13609 4.73541 6.15823 4.7644 6.17476C4.79339 6.19128 4.82539 6.20286 4.85852 6.20687ZM6.79852 6.10587C7.24218 5.93182 7.61134 5.60863 7.84252 5.19187L8.02152 4.97287L8.14052 5.18187C8.39052 5.55787 8.73252 5.86187 9.13452 6.06687C9.27519 6.14687 9.42119 6.21654 9.57252 6.27587C9.35082 6.38916 9.1379 6.51886 8.93552 6.66387C8.69931 6.83581 8.49146 7.04366 8.31952 7.27987C8.25019 7.35987 8.19052 7.4462 8.14052 7.53887C7.96833 7.201 7.71975 6.90791 7.41452 6.68287C7.15252 6.49287 6.86452 6.34287 6.55952 6.23587L6.79852 6.10587ZM21.0975 13.5459C21.0975 11.9149 20.9375 10.4729 20.8985 9.76687C20.8957 9.72909 20.8843 9.69245 20.8653 9.65971C20.8462 9.62696 20.82 9.59898 20.7885 9.57787C20.7445 9.3826 20.6524 9.20144 20.5205 9.05087C20.3367 8.8653 20.1214 8.71394 19.8845 8.60387C19.5691 8.45446 19.2341 8.35042 18.8895 8.29487C18.8522 8.28804 18.8138 8.28888 18.7768 8.29732C18.7398 8.30577 18.7049 8.32165 18.6742 8.344C18.6436 8.36636 18.6178 8.39472 18.5984 8.42736C18.579 8.46 18.5665 8.49623 18.5615 8.53387C18.5546 8.57048 18.5551 8.6081 18.5629 8.64452C18.5708 8.68095 18.5858 8.71544 18.6071 8.74599C18.6284 8.77654 18.6556 8.80252 18.6871 8.82242C18.7186 8.84232 18.7538 8.85573 18.7905 8.86187C19.0359 8.91187 19.2712 8.99154 19.4965 9.10087C19.7065 9.19087 19.8935 9.32687 20.0435 9.49887C20.091 9.56393 20.1244 9.63816 20.1416 9.71684C20.1589 9.79552 20.1595 9.87693 20.1435 9.95587C20.1377 10.0303 20.1159 10.1025 20.0797 10.1677C20.0434 10.233 19.9936 10.2896 19.9335 10.3339C19.5323 10.5777 19.0795 10.7239 18.6115 10.7609C17.863 10.8675 17.1031 10.8675 16.3545 10.7609C16.2099 10.7413 16.0668 10.7112 15.9265 10.6709C15.7846 10.6293 15.645 10.5799 15.5085 10.5229L14.9815 10.2339C14.9057 10.1899 14.8395 10.1312 14.7866 10.0613C14.7337 9.99147 14.6953 9.91176 14.6735 9.82687C14.681 9.72265 14.7127 9.62161 14.7662 9.53185C14.8197 9.44208 14.8934 9.36606 14.9815 9.30987C15.3565 9.02091 15.7861 8.81101 16.2445 8.69287C16.7045 8.55387 17.1905 8.51687 17.6665 8.58287C17.7294 8.59202 17.7934 8.57678 17.8454 8.54029C17.8974 8.50379 17.9335 8.44879 17.9463 8.38655C17.9591 8.32431 17.9476 8.25954 17.9141 8.2055C17.8807 8.15146 17.8279 8.11224 17.7665 8.09587C17.2203 7.97014 16.6527 7.97014 16.1065 8.09587C15.549 8.19196 15.0153 8.39466 14.5345 8.69287C14.334 8.80932 14.1643 8.97216 14.0397 9.16774C13.9152 9.36332 13.8393 9.58592 13.8185 9.81687C13.802 10.1556 13.9118 10.4884 14.1265 10.7509C13.9965 11.6269 13.8785 12.7409 13.8185 13.9239C13.8185 14.4699 13.8185 15.0269 13.7585 15.5939C13.6985 16.1609 13.7585 16.7179 13.7585 17.2639C13.7585 17.8119 13.7585 18.2589 13.8285 18.7759C13.7781 18.741 13.7245 18.7109 13.6685 18.6859C13.3534 18.5369 13.0187 18.4332 12.6745 18.3779C12.6007 18.3679 12.5259 18.3869 12.4658 18.4308C12.4057 18.4748 12.365 18.5404 12.3522 18.6137C12.3394 18.6871 12.3555 18.7626 12.3971 18.8243C12.4388 18.8861 12.5027 18.9293 12.5755 18.9449C12.8209 18.9949 13.0562 19.0745 13.2815 19.1839C13.4925 19.2759 13.6815 19.4119 13.8385 19.5819C13.8792 19.6419 13.9059 19.7082 13.9185 19.7809V19.8409C13.9185 19.9889 13.8485 20.1389 13.8185 20.2979L13.7085 20.4169C13.312 20.663 12.8619 20.8099 12.3965 20.8449C11.6447 20.9525 10.8814 20.9525 10.1295 20.8449C9.97952 20.8449 9.84052 20.7849 9.70152 20.7549C9.56152 20.7149 9.42552 20.6649 9.29352 20.6049L8.75752 20.3569C8.66926 20.3111 8.59329 20.2448 8.53603 20.1635C8.47877 20.0822 8.4419 19.9884 8.42852 19.8899C8.43685 19.7844 8.46898 19.6822 8.5225 19.5909C8.57602 19.4996 8.64954 19.4216 8.73752 19.3629C9.11919 19.0794 9.55066 18.8702 10.0095 18.7459C10.4683 18.614 10.9498 18.5803 11.4225 18.6469C11.4871 18.6612 11.5547 18.6493 11.6106 18.6139C11.6664 18.5785 11.706 18.5224 11.7205 18.4579C11.7351 18.3919 11.7234 18.3229 11.6879 18.2654C11.6524 18.2079 11.596 18.1665 11.5305 18.1499C10.9797 18.0353 10.4113 18.0353 9.86052 18.1499C9.30438 18.2536 8.77214 18.459 8.29052 18.7559C8.08981 18.8722 7.91994 19.035 7.79518 19.2306C7.67042 19.4262 7.5944 19.6488 7.57352 19.8799C7.56652 20.0699 7.60052 20.2599 7.67352 20.4369C7.67352 20.5959 7.61352 20.7449 7.59352 20.9039C7.58352 21.0499 7.58352 21.1959 7.59352 21.3419C7.58352 21.4905 7.58352 21.6395 7.59352 21.7889C7.62885 22.0522 7.68552 22.3109 7.76352 22.5649C7.71831 22.6115 7.69303 22.6739 7.69303 22.7389C7.69303 22.8038 7.71831 22.8662 7.76352 22.9129C8.00015 23.1232 8.26422 23.3005 8.54852 23.4399C8.82252 23.5712 9.10419 23.6839 9.39352 23.7779C9.71952 23.8725 10.0509 23.9389 10.3875 23.9769C10.7189 24.0089 11.0505 24.0089 11.3825 23.9769C12.0801 23.8935 12.7553 23.6773 13.3715 23.3399C13.4066 23.3256 13.4385 23.3044 13.4652 23.2775C13.4919 23.2506 13.5128 23.2185 13.5268 23.1833C13.5407 23.148 13.5473 23.1103 13.5463 23.0724C13.5452 23.0345 13.5364 22.9973 13.5205 22.9629C13.5068 22.9272 13.4858 22.8949 13.4589 22.8677C13.432 22.8406 13.3998 22.8193 13.3643 22.8052C13.3288 22.7912 13.2908 22.7846 13.2526 22.7859C13.2144 22.7872 13.177 22.7964 13.1425 22.8129C12.6855 22.9617 12.2106 23.0488 11.7305 23.0719C11.3729 23.0959 11.0141 23.0959 10.6565 23.0719C10.297 23.0579 9.93846 23.0245 9.58252 22.9719C9.26283 22.946 8.94637 22.8894 8.63752 22.8029L8.37952 22.6939C8.37952 22.3859 8.43952 22.0879 8.45952 21.7789V21.3809L8.83652 21.5509C9.00385 21.6282 9.17619 21.6909 9.35352 21.7389L9.90052 21.8589C10.7473 21.9925 11.6098 21.9925 12.4565 21.8589C12.8825 21.7859 13.2945 21.6489 13.6795 21.4509C13.6758 21.5008 13.6758 21.5509 13.6795 21.6009C13.7395 21.9279 13.8185 22.2469 13.8885 22.5949C13.8942 22.6711 13.9297 22.7421 13.9874 22.7923C14.0451 22.8424 14.1202 22.8678 14.1965 22.8629C14.2338 22.8613 14.2705 22.8524 14.3043 22.8365C14.3381 22.8206 14.3683 22.7981 14.3933 22.7703C14.4183 22.7426 14.4374 22.7101 14.4497 22.6748C14.4619 22.6395 14.467 22.6021 14.4645 22.5649C14.4645 22.3059 14.5245 22.0679 14.5645 21.8189C15.0657 22.1116 15.6086 22.3261 16.1745 22.4549C16.5025 22.5322 16.8342 22.5722 17.1695 22.5749C17.5029 22.5815 17.8345 22.5549 18.1645 22.4949C18.9622 22.3648 19.728 22.0849 20.4215 21.6699C20.4553 21.6541 20.4856 21.6317 20.5105 21.6039C20.5354 21.5761 20.5545 21.5436 20.5665 21.5083C20.5786 21.473 20.5833 21.4357 20.5806 21.3985C20.5779 21.3613 20.5676 21.325 20.5505 21.2919C20.5346 21.257 20.5117 21.2257 20.4831 21.2C20.4546 21.1744 20.4211 21.1548 20.3847 21.1426C20.3484 21.1304 20.3099 21.1259 20.2716 21.1292C20.2334 21.1325 20.1963 21.1436 20.1625 21.1619C19.4895 21.4149 18.7825 21.5619 18.0645 21.5999H17.1495C16.8515 21.5999 16.5435 21.5999 16.2445 21.5299C15.6605 21.4796 15.0856 21.3528 14.5345 21.1529V20.7549C14.4651 20.2633 14.4651 19.7644 14.5345 19.2729C15.0405 19.5659 15.5865 19.7829 16.1545 19.9199C16.8381 20.0534 17.541 20.0534 18.2245 19.9199C18.9178 19.7973 19.5882 19.5693 20.2125 19.2439C20.2125 19.8699 20.2125 20.3869 20.2625 20.7249C20.2532 20.777 20.2583 20.8307 20.2772 20.8801C20.2962 20.9295 20.3284 20.9728 20.3702 21.0052C20.412 21.0377 20.4619 21.0581 20.5145 21.0642C20.5671 21.0703 20.6204 21.0619 20.6685 21.0399C20.7262 21.0123 20.7731 20.9665 20.802 20.9095C20.831 20.8526 20.8403 20.7877 20.8285 20.7249C20.8785 20.0289 20.9785 18.5869 21.0485 16.9559V15.3359C21.0485 14.7889 21.1175 14.0729 21.0975 13.5459ZM14.6635 15.5349V13.8739C14.6579 13.7876 14.6579 13.7011 14.6635 13.6149C15.1415 13.8799 15.6535 14.0779 16.1855 14.2019C16.5129 14.2792 16.8442 14.3192 17.1795 14.3219C17.5129 14.3272 17.8442 14.3005 18.1735 14.2419C18.839 14.1285 19.4832 13.9136 20.0835 13.6049V15.6239C19.443 15.8525 18.7727 15.9866 18.0935 16.0219H17.1795C16.8815 16.0219 16.5725 16.0219 16.2745 15.9619C15.7015 15.9087 15.1373 15.7851 14.5945 15.5939L14.6635 15.5349ZM15.1015 11.3879C15.4426 11.5305 15.8 11.6306 16.1655 11.6859C17.0089 11.8151 17.8671 11.8151 18.7105 11.6859C19.2889 11.5983 19.838 11.3733 20.3115 11.0299C20.3115 11.5869 20.2315 12.2329 20.2025 12.9499C19.5474 13.1897 18.8602 13.3302 18.1635 13.3669H17.2495C16.9505 13.3669 16.6425 13.3669 16.3445 13.3069C15.7717 13.2467 15.2079 13.1198 14.6645 12.9289V11.1789L15.1015 11.3879ZM18.1645 18.8459H17.2495C16.9505 18.8459 16.6425 18.8459 16.3445 18.7859C15.7465 18.7288 15.1584 18.5951 14.5945 18.3879V16.2709C15.0773 16.5434 15.5956 16.7477 16.1345 16.8779C16.4632 16.9452 16.7949 16.9852 17.1295 16.9979C17.4635 17.0032 17.7952 16.9765 18.1245 16.9179C18.7859 16.8019 19.426 16.5872 20.0235 16.2809V16.7789C20.0235 17.3549 20.0235 17.9119 20.0735 18.4089C19.4612 18.6443 18.8177 18.7885 18.1635 18.8369L18.1645 18.8459Z" fill="black"/>
<path fill-rule="evenodd" clip-rule="evenodd" d="M9.83041 17.224C9.86784 17.2279 9.90568 17.2243 9.94169 17.2134C9.97769 17.2024 10.0111 17.1843 10.04 17.1601C10.0688 17.1359 10.0925 17.1062 10.1096 17.0727C10.1266 17.0391 10.1368 17.0025 10.1394 16.965C10.2263 16.4954 10.2794 16.0201 10.2984 15.543V14.947C10.2881 14.7504 10.268 14.5545 10.2384 14.36C10.1932 14.0247 10.1267 13.6927 10.0394 13.366C10.0594 13.1878 10.0424 13.0075 9.98942 12.8363C9.93642 12.665 9.84857 12.5066 9.73141 12.371C9.54775 12.1807 9.32818 12.0288 9.08541 11.924C8.77279 11.7676 8.43668 11.6636 8.09041 11.616C8.05384 11.6086 8.01616 11.6088 7.97963 11.6163C7.94311 11.6239 7.90849 11.6388 7.87786 11.6601C7.84723 11.6814 7.82121 11.7087 7.80137 11.7402C7.78154 11.7718 7.76829 11.8071 7.76241 11.844C7.74832 11.9191 7.76447 11.9968 7.80736 12.0601C7.85024 12.1234 7.91639 12.1672 7.99141 12.182C8.23875 12.226 8.47408 12.306 8.69741 12.422C8.91141 12.508 9.10241 12.645 9.25441 12.819C9.34555 12.9489 9.3815 13.1096 9.35441 13.266C9.34628 13.3422 9.32255 13.4161 9.28471 13.4828C9.24687 13.5495 9.19571 13.6078 9.13441 13.654C8.73538 13.8947 8.28663 14.0411 7.82241 14.082C7.07058 14.1896 6.30725 14.1896 5.55541 14.082C5.39868 14.0411 5.24551 13.9876 5.09741 13.922C4.95826 13.8855 4.82191 13.839 4.68941 13.783L4.15241 13.535C4.06501 13.4891 3.99025 13.4224 3.93478 13.3408C3.87931 13.2592 3.84484 13.1651 3.83441 13.067C3.84159 12.9623 3.87219 12.8606 3.92394 12.7694C3.97569 12.6782 4.04728 12.5998 4.13341 12.54C4.51711 12.2624 4.94814 12.0571 5.40541 11.934C5.86331 11.7989 6.34505 11.7648 6.81741 11.834C6.88478 11.8485 6.95516 11.8357 7.0131 11.7984C7.07104 11.7611 7.1118 11.7023 7.12641 11.635C7.13538 11.5694 7.11996 11.5028 7.08309 11.4479C7.04622 11.393 6.99047 11.3535 6.92641 11.337C6.37902 11.2223 5.81381 11.2223 5.26641 11.337C4.71025 11.4357 4.17764 11.6382 3.69641 11.934C3.49301 12.0468 3.32094 12.2086 3.19576 12.4047C3.07057 12.6008 2.99622 12.8249 2.97941 13.057C2.96641 13.237 2.99341 13.417 3.05941 13.584C2.98141 14.0726 2.92808 14.5633 2.89941 15.056V16.051C2.89941 16.409 2.89941 16.697 2.95941 17.045C3.01941 17.781 3.11941 18.447 3.19841 18.965C3.16738 19.0227 3.15838 19.0897 3.1731 19.1535C3.18782 19.2174 3.22525 19.2737 3.27841 19.312L3.35741 19.372C3.37877 19.4035 3.40592 19.4306 3.43741 19.452C3.65741 19.6526 3.89575 19.828 4.15241 19.978C4.29241 20.062 4.44175 20.122 4.60041 20.158C4.75175 20.208 4.90741 20.2376 5.06741 20.247C5.42875 20.2863 5.79008 20.2863 6.15141 20.247C6.19287 20.2544 6.23545 20.2526 6.27615 20.2418C6.31685 20.231 6.35468 20.2113 6.38698 20.1843C6.41927 20.1573 6.44525 20.1235 6.46307 20.0853C6.48089 20.0472 6.49013 20.0056 6.49013 19.9635C6.49013 19.9213 6.48089 19.8797 6.46307 19.8416C6.44525 19.8034 6.41927 19.7696 6.38698 19.7426C6.35468 19.7156 6.31685 19.696 6.27615 19.6851C6.23545 19.6743 6.19287 19.6725 6.15141 19.68C5.78341 19.59 5.48541 19.471 5.15741 19.382L4.55041 19.182L3.79441 18.895V17.105C4.28676 17.3834 4.816 17.5907 5.36641 17.721C5.69241 17.793 6.02641 17.833 6.36041 17.841C6.69375 17.8456 7.02508 17.819 7.35441 17.761C8.09378 17.6304 8.80642 17.3783 9.46341 17.015C9.47132 17.0542 9.48754 17.0913 9.51098 17.1237C9.53443 17.1562 9.56456 17.1832 9.59934 17.203C9.63412 17.2228 9.67274 17.2349 9.7126 17.2385C9.75247 17.2421 9.79264 17.2372 9.83041 17.224ZM7.37441 16.826H6.46041C6.15241 16.826 5.86441 16.826 5.55641 16.756C4.97288 16.7024 4.39839 16.5757 3.84641 16.379V14.35L3.96541 14.42C4.10341 14.4933 4.24575 14.5596 4.39241 14.619C4.56041 14.6936 4.73275 14.7566 4.90941 14.808C5.08608 14.8573 5.26508 14.897 5.44641 14.927C6.29354 15.0558 7.15528 15.0558 8.00241 14.927C8.49585 14.8535 8.96934 14.6811 9.39441 14.42V15.593C9.39441 15.783 9.48441 16.17 9.51441 16.399C8.83056 16.6608 8.10638 16.8051 7.37441 16.826ZM12.4864 2.29795C12.8934 2.29795 13.2714 2.45795 13.6794 2.52695H13.7694V2.58695C13.8127 3.02229 13.8854 3.45295 13.9874 3.87895C13.9927 3.95448 14.0264 4.02521 14.0816 4.07696C14.1369 4.1287 14.2097 4.15764 14.2854 4.15795C14.362 4.15026 14.4329 4.11437 14.4845 4.05726C14.5361 4.00015 14.5646 3.9259 14.5644 3.84895C14.5644 3.42195 14.6844 3.01395 14.7234 2.57695H14.7834C15.2181 2.53789 15.6477 2.45445 16.0654 2.32795C16.1351 2.30697 16.1943 2.26057 16.2313 2.19796C16.2684 2.13536 16.2805 2.06111 16.2654 1.98995C16.2536 1.92121 16.2181 1.85874 16.1652 1.81329C16.1123 1.76785 16.0452 1.74227 15.9754 1.74095C15.5831 1.7319 15.1915 1.70186 14.8024 1.65095C14.8024 1.19395 14.7424 0.746955 14.7424 0.288955C14.7487 0.23306 14.7367 0.176627 14.7082 0.128125C14.6798 0.0796224 14.6363 0.0416672 14.5844 0.0199546C14.5493 0.00679524 14.5119 0.000350354 14.4744 0.000954634C14.4078 -0.004659 14.3415 0.0146264 14.2883 0.0550799C14.2351 0.0955334 14.1988 0.15428 14.1864 0.219955C14.0444 0.629955 13.9284 1.04762 13.8384 1.47295V1.60295C13.3836 1.63131 12.9317 1.69415 12.4864 1.79095C12.4532 1.79085 12.4204 1.79763 12.39 1.81086C12.3595 1.82409 12.3322 1.84349 12.3096 1.86783C12.2871 1.89217 12.2698 1.92092 12.2589 1.95227C12.248 1.98361 12.2438 2.01688 12.2464 2.04995C12.2492 2.11349 12.2751 2.17382 12.3193 2.21952C12.3636 2.26522 12.423 2.29312 12.4864 2.29795Z" fill="black"/>
</g>
<defs>
<filter id="filter0_d_772_182" x="-1.10059" y="0" width="26.2021" height="32" filterUnits="userSpaceOnUse" color-interpolation-filters="sRGB">
<feFlood flood-opacity="0" result="BackgroundImageFix"/>
<feColorMatrix in="SourceAlpha" type="matrix" values="0 0 0 0 0 0 0 0 0 0 0 0 0 0 0 0 0 0 127 0" result="hardAlpha"/>
<feOffset dy="4"/>
<feGaussianBlur stdDeviation="2"/>
<feComposite in2="hardAlpha" operator="out"/>
<feColorMatrix type="matrix" values="0 0 0 0 0 0 0 0 0 0 0 0 0 0 0 0 0 0 0.25 0"/>
<feBlend mode="normal" in2="BackgroundImageFix" result="effect1_dropShadow_772_182"/>
<feBlend mode="normal" in="SourceGraphic" in2="effect1_dropShadow_772_182" result="shape"/>
</filter>
</defs>
</svg>
