<svg width="24" height="24" viewBox="0 0 24 24" fill="none" xmlns="http://www.w3.org/2000/svg">
<path d="M8 22C6.9 22 5.95833 21.6083 5.175 20.825C4.39167 20.0417 4 19.1 4 18V8C4 6.9 4.39167 5.95833 5.175 5.175C5.95833 4.39167 6.9 4 8 4H9V2H11V4H13V2H15V4H16C17.1 4 18.0417 4.39167 18.825 5.175C19.6083 5.95833 20 6.9 20 8V18C20 19.1 19.6083 20.0417 18.825 20.825C18.0417 21.6083 17.1 22 16 22H8ZM8 10H16V8H8V10ZM12 18C12.7 18 13.2917 17.7627 13.775 17.288C14.2583 16.8133 14.5 16.234 14.5 15.55C14.5 15 14.3417 14.5293 14.025 14.138C13.7083 13.7467 13.0333 12.9507 12 11.75C10.95 12.95 10.271 13.75 9.963 14.15C9.655 14.55 9.50067 15.0167 9.5 15.55C9.5 16.2333 9.74167 16.8127 10.225 17.288C10.7083 17.7633 11.3 18.0007 12 18Z" fill="black"/>
</svg>
