<svg width="14" height="14" viewBox="0 0 14 14" fill="none" xmlns="http://www.w3.org/2000/svg">
<path d="M6.99967 2.33301C7.61851 2.33301 8.21201 2.57884 8.64959 3.01643C9.08717 3.45401 9.33301 4.0475 9.33301 4.66634C9.33301 5.28518 9.08717 5.87867 8.64959 6.31626C8.21201 6.75384 7.61851 6.99967 6.99967 6.99967C6.38084 6.99967 5.78734 6.75384 5.34976 6.31626C4.91217 5.87867 4.66634 5.28518 4.66634 4.66634C4.66634 4.0475 4.91217 3.45401 5.34976 3.01643C5.78734 2.57884 6.38084 2.33301 6.99967 2.33301ZM6.99967 8.16634C9.57801 8.16634 11.6663 9.21051 11.6663 10.4997V11.6663H2.33301V10.4997C2.33301 9.21051 4.42134 8.16634 6.99967 8.16634Z" fill="#333333"/>
</svg>
