<svg width="18" height="18" viewBox="0 0 18 18" fill="none" xmlns="http://www.w3.org/2000/svg">
<path fill-rule="evenodd" clip-rule="evenodd" d="M8.99985 1.5C9.19877 1.5 9.38953 1.57902 9.53018 1.71967C9.67084 1.86032 9.74985 2.05109 9.74985 2.25V2.9715L10.2404 2.712C10.4162 2.61901 10.6218 2.59968 10.8119 2.65826C11.002 2.71684 11.161 2.84854 11.254 3.02437C11.347 3.20021 11.3663 3.40579 11.3077 3.59588C11.2491 3.78597 11.1174 3.94501 10.9416 4.038L9.74985 4.668V6.0945C10.2861 6.2325 10.7639 6.5145 11.1404 6.89775L12.3764 6.1845L12.3261 4.8375C12.3186 4.63869 12.3905 4.44505 12.5258 4.2992C12.6611 4.15334 12.8488 4.06721 13.0476 4.05975C13.2464 4.05229 13.44 4.12411 13.5859 4.25942C13.7318 4.39473 13.8179 4.58244 13.8254 4.78125L13.8456 5.33625L14.4704 4.9755C14.5557 4.92548 14.6501 4.89283 14.7481 4.87943C14.8461 4.86603 14.9457 4.87214 15.0414 4.89743C15.137 4.92271 15.2267 4.96665 15.3052 5.02674C15.3838 5.08682 15.4497 5.16185 15.4992 5.2475C15.5486 5.33316 15.5807 5.42776 15.5934 5.52584C15.6062 5.62393 15.5994 5.72356 15.5735 5.81902C15.5475 5.91447 15.503 6.00386 15.4424 6.08203C15.3818 6.1602 15.3063 6.22561 15.2204 6.2745L14.5956 6.6345L15.0659 6.93C15.1493 6.9824 15.2216 7.05071 15.2786 7.13105C15.3356 7.21138 15.3762 7.30216 15.3982 7.3982C15.4201 7.49423 15.4229 7.59365 15.4064 7.69078C15.39 7.7879 15.3545 7.88083 15.3021 7.96425C15.2497 8.04767 15.1814 8.11996 15.1011 8.17698C15.0207 8.234 14.9299 8.27464 14.8339 8.29657C14.7379 8.31851 14.6384 8.32132 14.5413 8.30483C14.4442 8.28835 14.3513 8.2529 14.2679 8.2005L13.1264 7.4835L11.8911 8.196C12.0373 8.72178 12.0373 9.27747 11.8911 9.80325L13.1264 10.5165L14.2679 9.7995C14.4363 9.69368 14.6399 9.65912 14.8339 9.70342C15.0279 9.74773 15.1963 9.86727 15.3021 10.0357C15.4079 10.2042 15.4425 10.4078 15.3982 10.6018C15.3539 10.7958 15.2343 10.9642 15.0659 11.07L14.5964 11.3647L15.2204 11.7255C15.3063 11.7744 15.3818 11.8398 15.4424 11.918C15.503 11.9961 15.5475 12.0855 15.5735 12.181C15.5994 12.2764 15.6062 12.3761 15.5934 12.4742C15.5807 12.5722 15.5486 12.6668 15.4992 12.7525C15.4497 12.8382 15.3838 12.9132 15.3052 12.9733C15.2267 13.0333 15.137 13.0773 15.0414 13.1026C14.9457 13.1279 14.8461 13.134 14.7481 13.1206C14.6501 13.1072 14.5557 13.0745 14.4704 13.0245L13.8464 12.6645L13.8254 13.2187C13.8179 13.4176 13.7318 13.6053 13.5859 13.7406C13.44 13.8759 13.2464 13.9477 13.0476 13.9402C12.8488 13.9328 12.6611 13.8467 12.5258 13.7008C12.3905 13.5549 12.3186 13.3613 12.3261 13.1625L12.3764 11.8155L11.1404 11.1022C10.7639 11.4847 10.2854 11.7675 9.74985 11.9055V13.332L10.9416 13.962C11.1174 14.055 11.2491 14.214 11.3077 14.4041C11.3663 14.5942 11.347 14.7998 11.254 14.9756C11.161 15.1515 11.002 15.2832 10.8119 15.3417C10.6218 15.4003 10.4162 15.381 10.2404 15.288L9.74985 15.0285V15.75C9.74985 15.9489 9.67084 16.1397 9.53018 16.2803C9.38953 16.421 9.19877 16.5 8.99985 16.5C8.80094 16.5 8.61018 16.421 8.46952 16.2803C8.32887 16.1397 8.24985 15.9489 8.24985 15.75V15.0285L7.75935 15.288C7.67229 15.334 7.577 15.3625 7.47894 15.3717C7.38089 15.3809 7.28197 15.3707 7.18785 15.3417C7.09372 15.3127 7.00623 15.2655 6.93038 15.2027C6.85452 15.1398 6.79177 15.0627 6.74573 14.9756C6.69968 14.8886 6.67124 14.7933 6.66202 14.6952C6.6528 14.5972 6.66298 14.4982 6.69199 14.4041C6.72099 14.31 6.76826 14.2225 6.83107 14.1466C6.89389 14.0708 6.97104 14.008 7.0581 13.962L8.24985 13.332V11.9055C7.72189 11.7689 7.24116 11.4909 6.85935 11.1015L5.62335 11.8155L5.6736 13.1625C5.67725 13.2609 5.66147 13.3591 5.62716 13.4515C5.59286 13.5438 5.5407 13.6285 5.47367 13.7007C5.40663 13.7729 5.32604 13.8312 5.23649 13.8722C5.14693 13.9132 5.05017 13.9362 4.95173 13.9399C4.85329 13.9435 4.75509 13.9277 4.66275 13.8934C4.5704 13.8591 4.48572 13.807 4.41354 13.7399C4.34135 13.6729 4.28307 13.5923 4.24203 13.5028C4.201 13.4132 4.178 13.3164 4.17435 13.218L4.1541 12.6637L3.52935 13.0237C3.44398 13.0766 3.34886 13.1117 3.24965 13.1271C3.15044 13.1425 3.04915 13.1378 2.95179 13.1133C2.85443 13.0888 2.76298 13.045 2.68285 12.9845C2.60273 12.924 2.53557 12.848 2.48535 12.7611C2.43512 12.6742 2.40287 12.578 2.39049 12.4784C2.37811 12.3788 2.38586 12.2777 2.41328 12.1811C2.4407 12.0845 2.48723 11.9944 2.55011 11.9162C2.61299 11.8379 2.69095 11.7731 2.77935 11.7255L3.4041 11.3647L2.93385 11.0692C2.76984 10.9615 2.65461 10.7937 2.6129 10.6019C2.57119 10.4101 2.60633 10.2096 2.71076 10.0434C2.8152 9.87723 2.98062 9.75862 3.17152 9.71302C3.36242 9.66741 3.56359 9.69846 3.73185 9.7995L4.87335 10.5165L6.1086 9.80325C5.96256 9.27771 5.96256 8.72229 6.1086 8.19675L4.87335 7.48425L3.73185 8.2005C3.56359 8.30154 3.36242 8.33258 3.17152 8.28698C2.98062 8.24138 2.8152 8.12277 2.71076 7.95659C2.60633 7.79041 2.57119 7.58992 2.6129 7.39813C2.65461 7.20634 2.76984 7.03855 2.93385 6.93075L3.4041 6.63525L2.77935 6.27525C2.607 6.17579 2.48121 6.01194 2.42966 5.81974C2.37811 5.62754 2.40502 5.42273 2.50448 5.25037C2.60393 5.07802 2.76779 4.95223 2.95999 4.90068C3.15219 4.84913 3.357 4.87604 3.52935 4.9755L4.1541 5.33625L4.17435 4.78125C4.18181 4.58244 4.26794 4.39473 4.4138 4.25942C4.48602 4.19243 4.57073 4.14031 4.66309 4.10605C4.75546 4.07179 4.85366 4.05606 4.9521 4.05975C5.05055 4.06344 5.1473 4.08649 5.23683 4.12757C5.32637 4.16866 5.40693 4.22698 5.47393 4.2992C5.54093 4.37142 5.59304 4.45613 5.62731 4.54849C5.66156 4.64085 5.6773 4.73906 5.6736 4.8375L5.62335 6.1845L6.85935 6.8985C7.24116 6.5091 7.72189 6.23113 8.24985 6.0945V4.668L7.0581 4.038C6.88227 3.94501 6.75057 3.78597 6.69199 3.59588C6.63341 3.40579 6.65274 3.20021 6.74573 3.02437C6.83872 2.84854 6.99775 2.71684 7.18785 2.65826C7.37794 2.59968 7.58352 2.61901 7.75935 2.712L8.24985 2.9715V2.25C8.24985 2.05109 8.32887 1.86032 8.46952 1.71967C8.61018 1.57902 8.80094 1.5 8.99985 1.5ZM8.99985 10.5C9.39768 10.5 9.77921 10.342 10.0605 10.0607C10.3418 9.77936 10.4999 9.39782 10.4999 9C10.4999 8.60217 10.3418 8.22064 10.0605 7.93934C9.77921 7.65804 9.39768 7.5 8.99985 7.5C8.60203 7.5 8.2205 7.65804 7.93919 7.93934C7.65789 8.22064 7.49985 8.60217 7.49985 9C7.49985 9.39782 7.65789 9.77936 7.93919 10.0607C8.2205 10.342 8.60203 10.5 8.99985 10.5Z" fill="#333333"/>
</svg>
