<svg width="20" height="20" viewBox="0 0 20 20" fill="none" xmlns="http://www.w3.org/2000/svg">
<path d="M10.0001 9.16699C10.2211 9.16699 10.4331 9.25479 10.5894 9.41107C10.7457 9.56735 10.8335 9.77931 10.8335 10.0003V15.487L11.911 14.4103C12.0674 14.2541 12.2796 14.1664 12.5007 14.1665C12.7219 14.1667 12.9339 14.2547 13.0901 14.4112C13.2464 14.5676 13.3341 14.7798 13.3339 15.0009C13.3338 15.2221 13.2458 15.4341 13.0893 15.5903L10.736 17.9395C10.5251 18.1495 10.3193 18.3337 10.0001 18.3337C9.72013 18.3337 9.52846 18.1928 9.34346 18.017L6.91096 15.5903C6.75449 15.4341 6.66649 15.2221 6.66633 15.0009C6.66618 14.7798 6.75387 14.5676 6.91013 14.4112C7.06639 14.2547 7.2784 14.1667 7.49954 14.1665C7.72068 14.1664 7.93282 14.2541 8.0893 14.4103L9.1668 15.487V10.0003C9.1668 9.77931 9.25459 9.56735 9.41087 9.41107C9.56715 9.25479 9.77911 9.16699 10.0001 9.16699ZM9.58346 1.66699C11.9035 1.66699 13.8835 3.12533 14.6551 5.17699C15.6831 5.45964 16.5939 6.06332 17.2547 6.89999C17.9155 7.73666 18.2917 8.76256 18.3284 9.82806C18.3652 10.8936 18.0606 11.9429 17.459 12.8232C16.8574 13.7034 15.9904 14.3684 14.9843 14.7212C14.9212 14.1587 14.6691 13.6343 14.2693 13.2337C13.8429 12.8066 13.2763 12.5482 12.6743 12.5062L12.5001 12.5003V10.0003C12.5008 9.34957 12.2476 8.72422 11.7945 8.25714C11.3414 7.79007 10.724 7.51809 10.0735 7.49899C9.42302 7.4799 8.79073 7.71519 8.31099 8.15488C7.83124 8.59456 7.54185 9.20399 7.5043 9.85366L7.50013 10.0003V12.5003C7.17151 12.5003 6.84611 12.565 6.54254 12.6909C6.23897 12.8167 5.96319 13.0011 5.73096 13.2337C5.28338 13.6821 5.02276 14.2838 5.0018 14.917C4.13423 14.7397 3.34567 14.2908 2.7504 13.6352C2.15512 12.9797 1.78408 12.1516 1.69104 11.271C1.59801 10.3904 1.78782 9.50308 2.23296 8.73761C2.67809 7.97214 3.35543 7.36832 4.1668 7.01366C4.18521 5.58924 4.76401 4.2294 5.77784 3.22867C6.79167 2.22794 8.15892 1.66687 9.58346 1.66699Z" fill="#002455"/>
</svg>
