<svg width="24" height="24" viewBox="0 0 24 24" fill="none" xmlns="http://www.w3.org/2000/svg">
<path d="M6.133 21.0003C4.955 21.0003 4 20.0203 4 18.8103V10.0083C4 9.34328 4.295 8.71328 4.8 8.29828L10.667 3.48028C11.0419 3.16986 11.5133 3 12 3C12.4867 3 12.9581 3.16986 13.333 3.48028L19.199 8.29828C19.705 8.71328 20 9.34328 20 10.0083V18.8103C20 20.0203 19.045 21.0003 17.867 21.0003H6.133Z" stroke="black" stroke-width="1.5" stroke-linecap="round" stroke-linejoin="round"/>
<path d="M9.5 21V15.5C9.5 14.9696 9.71071 14.4609 10.0858 14.0858C10.4609 13.7107 10.9696 13.5 11.5 13.5H12.5C13.0304 13.5 13.5391 13.7107 13.9142 14.0858C14.2893 14.4609 14.5 14.9696 14.5 15.5V21" stroke="black" stroke-width="1.5" stroke-linecap="round" stroke-linejoin="round"/>
</svg>
