<svg width="50" height="50" viewBox="0 0 50 50" fill="none" xmlns="http://www.w3.org/2000/svg">
<path d="M24.9999 4.16602C25.5525 4.16602 26.0824 4.38551 26.4731 4.77621C26.8638 5.16691 27.0833 5.69681 27.0833 6.24935V12.4993C27.0833 13.0519 26.8638 13.5818 26.4731 13.9725C26.0824 14.3632 25.5525 14.5827 24.9999 14.5827C24.4474 14.5827 23.9175 14.3632 23.5268 13.9725C23.1361 13.5818 22.9166 13.0519 22.9166 12.4993V6.24935C22.9166 5.69681 23.1361 5.16691 23.5268 4.77621C23.9175 4.38551 24.4474 4.16602 24.9999 4.16602ZM24.9999 35.416C25.5525 35.416 26.0824 35.6355 26.4731 36.0262C26.8638 36.4169 27.0833 36.9468 27.0833 37.4993V43.7493C27.0833 44.3019 26.8638 44.8318 26.4731 45.2225C26.0824 45.6132 25.5525 45.8327 24.9999 45.8327C24.4474 45.8327 23.9175 45.6132 23.5268 45.2225C23.1361 44.8318 22.9166 44.3019 22.9166 43.7493V37.4993C22.9166 36.9468 23.1361 36.4169 23.5268 36.0262C23.9175 35.6355 24.4474 35.416 24.9999 35.416ZM43.0416 14.5827C43.3178 15.0612 43.3927 15.6298 43.2497 16.1635C43.1067 16.6972 42.7576 17.1522 42.2791 17.4285L36.8666 20.5535C36.6296 20.6925 36.3674 20.7832 36.0952 20.8204C35.823 20.8576 35.5461 20.8406 35.2805 20.7704C35.0148 20.7002 34.7657 20.5781 34.5475 20.4112C34.3292 20.2443 34.1461 20.0359 34.0087 19.7979C33.8714 19.56 33.7824 19.2972 33.747 19.0248C33.7116 18.7523 33.7304 18.4756 33.8024 18.2104C33.8744 17.9453 33.9981 17.697 34.1664 17.4798C34.3348 17.2627 34.5444 17.081 34.7833 16.9452L40.1958 13.8202C40.6743 13.5439 41.2429 13.4691 41.7766 13.6121C42.3103 13.7551 42.7653 14.1042 43.0416 14.5827ZM15.9791 30.2077C16.1158 30.4447 16.2045 30.7064 16.24 30.9777C16.2756 31.249 16.2573 31.5247 16.1863 31.789C16.1153 32.0533 15.993 32.301 15.8262 32.5179C15.6595 32.7349 15.4516 32.9169 15.2145 33.0535L9.80201 36.1785C9.56498 36.3175 9.30282 36.4082 9.0306 36.4454C8.75838 36.4826 8.48149 36.4656 8.21587 36.3954C7.95025 36.3252 7.70114 36.2031 7.48288 36.0362C7.26463 35.8693 7.08154 35.6609 6.94417 35.4229C6.80679 35.185 6.71783 34.9222 6.68242 34.6498C6.647 34.3773 6.66583 34.1006 6.73782 33.8354C6.80981 33.5703 6.93353 33.322 7.10187 33.1048C7.2702 32.8877 7.47983 32.706 7.71867 32.5702L13.1312 29.4452C13.6097 29.1689 14.1783 29.0941 14.712 29.2371C15.2457 29.3801 15.7028 29.7292 15.9791 30.2077ZM43.0416 35.416C42.7653 35.8945 42.3103 36.2436 41.7766 36.3866C41.2429 36.5296 40.6743 36.4548 40.1958 36.1785L34.7833 33.0535C34.3087 32.7753 33.9634 32.3206 33.8228 31.7888C33.6821 31.2569 33.7576 30.691 34.0327 30.2146C34.3078 29.7381 34.7601 29.3898 35.291 29.2457C35.822 29.1016 36.3883 29.1733 36.8666 29.4452L42.2791 32.5702C42.7576 32.8465 43.1067 33.3015 43.2497 33.8352C43.3927 34.3689 43.3178 34.9375 43.0416 35.416ZM15.9791 19.791C15.8423 20.0282 15.6601 20.2361 15.4429 20.4028C15.2256 20.5696 14.9777 20.6918 14.7132 20.7626C14.4487 20.8335 14.1728 20.8514 13.9014 20.8156C13.6299 20.7797 13.3682 20.6906 13.1312 20.5535L7.71867 17.4285C7.47983 17.2927 7.2702 17.111 7.10187 16.8939C6.93353 16.6767 6.80981 16.4284 6.73782 16.1633C6.66583 15.8981 6.647 15.6214 6.68242 15.3489C6.71783 15.0765 6.80679 14.8137 6.94417 14.5757C7.08154 14.3378 7.26463 14.1294 7.48288 13.9625C7.70114 13.7956 7.95025 13.6735 8.21587 13.6033C8.48149 13.5331 8.75838 13.5161 9.0306 13.5533C9.30282 13.5905 9.56498 13.6812 9.80201 13.8202L15.2145 16.9452C15.4516 17.0818 15.6595 17.2638 15.8262 17.4808C15.993 17.6977 16.1153 17.9454 16.1863 18.2097C16.2573 18.474 16.2756 18.7497 16.24 19.021C16.2045 19.2923 16.1158 19.554 15.9791 19.791Z" fill="black"/>
</svg>
