<svg width="14" height="14" viewBox="0 0 14 14" fill="none" xmlns="http://www.w3.org/2000/svg">
<path d="M5.57866 5.09278L5.87907 6.17953C6.16199 7.20328 6.30316 7.71545 6.71907 7.9482C7.13499 8.18153 7.66291 8.04387 8.71874 7.7697L9.83874 7.47803C10.8946 7.20387 11.4225 7.06678 11.6628 6.6637C11.9032 6.26003 11.762 5.74787 11.4785 4.72412L11.1787 3.63795C10.8957 2.61362 10.754 2.10145 10.3387 1.8687C9.92216 1.63537 9.39424 1.77303 8.33841 2.04778L7.21841 2.33828C6.16257 2.61245 5.63466 2.75012 5.39491 3.15378C5.15457 3.55687 5.29574 4.06903 5.57866 5.09278Z" fill="#333333"/>
<path d="M1.32836 3.06079C1.34373 3.00538 1.36987 2.95355 1.40528 2.90826C1.44069 2.86297 1.48469 2.8251 1.53475 2.79682C1.5848 2.76854 1.63995 2.7504 1.69702 2.74345C1.75409 2.73649 1.81197 2.74086 1.86736 2.75629L2.86078 3.03162C3.12398 3.10328 3.36416 3.24183 3.55797 3.43379C3.75178 3.62576 3.89261 3.86461 3.96678 4.12712L5.22153 8.66895L5.31369 8.98804C5.68572 9.12515 5.99922 9.38613 6.20153 9.72712L6.38236 9.67112L11.5565 8.32654C11.6121 8.31206 11.6701 8.30868 11.727 8.31658C11.7839 8.32449 11.8387 8.34353 11.8883 8.37262C11.9378 8.40171 11.9812 8.44027 12.0159 8.48611C12.0505 8.53195 12.0758 8.58417 12.0903 8.63979C12.1048 8.6954 12.1081 8.75332 12.1002 8.81024C12.0923 8.86717 12.0733 8.92197 12.0442 8.97154C12.0151 9.0211 11.9765 9.06445 11.9307 9.09911C11.8849 9.13377 11.8326 9.15906 11.777 9.17354L6.62211 10.5129L6.42961 10.5724C6.42611 11.3132 5.91453 11.991 5.14044 12.1917C4.21294 12.4332 3.25919 11.8989 3.01069 10.9994C2.76219 10.0999 3.31286 9.17412 4.24036 8.9332C4.28664 8.92154 4.33272 8.91142 4.37861 8.90287L3.12328 4.35987C3.08933 4.24323 3.02585 4.13733 2.93899 4.05241C2.85213 3.96749 2.74482 3.90642 2.62744 3.87512L1.63344 3.5992C1.57805 3.58389 1.52622 3.55782 1.48091 3.52247C1.4356 3.48712 1.39769 3.4432 1.36936 3.3932C1.34103 3.3432 1.32283 3.28811 1.31579 3.23107C1.30876 3.17403 1.31303 3.11617 1.32836 3.06079Z" fill="#333333"/>
</svg>
