<svg width="18" height="17" viewBox="0 0 18 17" fill="none" xmlns="http://www.w3.org/2000/svg">
<g filter="url(#filter0_d_513_10102)">
<path d="M14.25 1.5H12.75V0.75C12.75 0.551088 12.671 0.360322 12.5303 0.21967C12.3897 0.0790176 12.1989 0 12 0C11.8011 0 11.6103 0.0790176 11.4697 0.21967C11.329 0.360322 11.25 0.551088 11.25 0.75V1.5H6.75V0.75C6.75 0.551088 6.67098 0.360322 6.53033 0.21967C6.38968 0.0790176 6.19891 0 6 0C5.80109 0 5.61032 0.0790176 5.46967 0.21967C5.32902 0.360322 5.25 0.551088 5.25 0.75V1.5H3.75C3.15326 1.5 2.58097 1.73705 2.15901 2.15901C1.73705 2.58097 1.5 3.15326 1.5 3.75V12.75C1.5 13.3467 1.73705 13.919 2.15901 14.341C2.58097 14.7629 3.15326 15 3.75 15H14.25C14.8467 15 15.419 14.7629 15.841 14.341C16.2629 13.919 16.5 13.3467 16.5 12.75V3.75C16.5 3.15326 16.2629 2.58097 15.841 2.15901C15.419 1.73705 14.8467 1.5 14.25 1.5ZM15 12.75C15 12.9489 14.921 13.1397 14.7803 13.2803C14.6397 13.421 14.4489 13.5 14.25 13.5H3.75C3.55109 13.5 3.36032 13.421 3.21967 13.2803C3.07902 13.1397 3 12.9489 3 12.75V7.5H15V12.75ZM15 6H3V3.75C3 3.55109 3.07902 3.36032 3.21967 3.21967C3.36032 3.07902 3.55109 3 3.75 3H5.25V3.75C5.25 3.94891 5.32902 4.13968 5.46967 4.28033C5.61032 4.42098 5.80109 4.5 6 4.5C6.19891 4.5 6.38968 4.42098 6.53033 4.28033C6.67098 4.13968 6.75 3.94891 6.75 3.75V3H11.25V3.75C11.25 3.94891 11.329 4.13968 11.4697 4.28033C11.6103 4.42098 11.8011 4.5 12 4.5C12.1989 4.5 12.3897 4.42098 12.5303 4.28033C12.671 4.13968 12.75 3.94891 12.75 3.75V3H14.25C14.4489 3 14.6397 3.07902 14.7803 3.21967C14.921 3.36032 15 3.55109 15 3.75V6Z" fill="#002455"/>
</g>
<defs>
<filter id="filter0_d_513_10102" x="-2.5" y="0" width="23" height="23" filterUnits="userSpaceOnUse" color-interpolation-filters="sRGB">
<feFlood flood-opacity="0" result="BackgroundImageFix"/>
<feColorMatrix in="SourceAlpha" type="matrix" values="0 0 0 0 0 0 0 0 0 0 0 0 0 0 0 0 0 0 127 0" result="hardAlpha"/>
<feOffset dy="4"/>
<feGaussianBlur stdDeviation="2"/>
<feComposite in2="hardAlpha" operator="out"/>
<feColorMatrix type="matrix" values="0 0 0 0 0 0 0 0 0 0 0 0 0 0 0 0 0 0 0.25 0"/>
<feBlend mode="normal" in2="BackgroundImageFix" result="effect1_dropShadow_513_10102"/>
<feBlend mode="normal" in="SourceGraphic" in2="effect1_dropShadow_513_10102" result="shape"/>
</filter>
</defs>
</svg>
