<svg width="18" height="17" viewBox="0 0 18 17" fill="none" xmlns="http://www.w3.org/2000/svg">
<g filter="url(#filter0_d_513_10097)">
<path d="M9 13.5C10.5913 13.5 12.1174 12.8679 13.2426 11.7426C14.3679 10.6174 15 9.0913 15 7.5C15 5.9087 14.3679 4.38258 13.2426 3.25736C12.1174 2.13214 10.5913 1.5 9 1.5C7.4087 1.5 5.88258 2.13214 4.75736 3.25736C3.63214 4.38258 3 5.9087 3 7.5C3 9.0913 3.63214 10.6174 4.75736 11.7426C5.88258 12.8679 7.4087 13.5 9 13.5ZM9 0C9.98491 0 10.9602 0.193993 11.8701 0.570903C12.7801 0.947814 13.6069 1.50026 14.3033 2.1967C14.9997 2.89314 15.5522 3.71993 15.9291 4.62987C16.306 5.53982 16.5 6.51509 16.5 7.5C16.5 9.48912 15.7098 11.3968 14.3033 12.8033C12.8968 14.2098 10.9891 15 9 15C4.8525 15 1.5 11.625 1.5 7.5C1.5 5.51088 2.29018 3.60322 3.6967 2.1967C5.10322 0.790176 7.01088 0 9 0ZM9.375 3.75V7.6875L12.75 9.69L12.1875 10.6125L8.25 8.25V3.75H9.375Z" fill="#002455"/>
</g>
<defs>
<filter id="filter0_d_513_10097" x="-2.5" y="0" width="23" height="23" filterUnits="userSpaceOnUse" color-interpolation-filters="sRGB">
<feFlood flood-opacity="0" result="BackgroundImageFix"/>
<feColorMatrix in="SourceAlpha" type="matrix" values="0 0 0 0 0 0 0 0 0 0 0 0 0 0 0 0 0 0 127 0" result="hardAlpha"/>
<feOffset dy="4"/>
<feGaussianBlur stdDeviation="2"/>
<feComposite in2="hardAlpha" operator="out"/>
<feColorMatrix type="matrix" values="0 0 0 0 0 0 0 0 0 0 0 0 0 0 0 0 0 0 0.25 0"/>
<feBlend mode="normal" in2="BackgroundImageFix" result="effect1_dropShadow_513_10097"/>
<feBlend mode="normal" in="SourceGraphic" in2="effect1_dropShadow_513_10097" result="shape"/>
</filter>
</defs>
</svg>
