<svg width="16" height="15" viewBox="0 0 16 15" fill="none" xmlns="http://www.w3.org/2000/svg">
<g filter="url(#filter0_d_513_10121)">
<path d="M11.5 3.5L15.9922 5.75V11.8594L11.5 14.1094L7 11.875V9.36719L4.5 10.6094L0 8.375L0.0078125 2.25L4.5 0L8.99219 2.25L9 4.75781L11.5 3.5ZM14.375 6.05469L11.5 4.625L8.625 6.05469L11.5 7.49219L14.375 6.05469ZM7.375 2.55469L4.5 1.125L1.625 2.55469L4.5 3.99219L7.375 2.55469ZM1.00781 3.36719L1 7.75L4 9.24219V4.85938L1.00781 3.36719ZM5 9.24219L7.00781 8.25V5.75L8 5.25781L7.99219 3.36719L5 4.85938V9.24219ZM8.00781 6.86719L8 11.25L11 12.7422V8.35938L8.00781 6.86719ZM12 12.7422L14.9922 11.2422V6.86719L12 8.35938V12.7422Z" fill="white"/>
</g>
<defs>
<filter id="filter0_d_513_10121" x="-4" y="0" width="23.9922" height="22.1094" filterUnits="userSpaceOnUse" color-interpolation-filters="sRGB">
<feFlood flood-opacity="0" result="BackgroundImageFix"/>
<feColorMatrix in="SourceAlpha" type="matrix" values="0 0 0 0 0 0 0 0 0 0 0 0 0 0 0 0 0 0 127 0" result="hardAlpha"/>
<feOffset dy="4"/>
<feGaussianBlur stdDeviation="2"/>
<feComposite in2="hardAlpha" operator="out"/>
<feColorMatrix type="matrix" values="0 0 0 0 0 0 0 0 0 0 0 0 0 0 0 0 0 0 0.25 0"/>
<feBlend mode="normal" in2="BackgroundImageFix" result="effect1_dropShadow_513_10121"/>
<feBlend mode="normal" in="SourceGraphic" in2="effect1_dropShadow_513_10121" result="shape"/>
</filter>
</defs>
</svg>
