<svg width="41" height="45" viewBox="0 0 41 45" fill="none" xmlns="http://www.w3.org/2000/svg">
<path fill-rule="evenodd" clip-rule="evenodd" d="M10.4437 4.1875C10.5671 3.03753 11.1113 1.97376 11.9716 1.20075C12.8319 0.427747 13.9476 8.39842e-05 15.1042 0H25.5208C26.6774 8.39842e-05 27.7931 0.427747 28.6534 1.20075C29.5137 1.97376 30.0579 3.03753 30.1812 4.1875C31.7729 4.22083 33.1458 4.30208 34.3208 4.51875C35.9 4.81042 37.2437 5.36042 38.3375 6.45625C39.5917 7.70833 40.1292 9.28958 40.3833 11.1646C40.625 12.9688 40.625 15.2667 40.625 18.1146V30.8438C40.625 33.6917 40.625 35.9896 40.3833 37.7958C40.1292 39.6708 39.5917 41.25 38.3375 42.5042C37.0833 43.7583 35.5042 44.2958 33.6292 44.55C31.8229 44.7917 29.525 44.7917 26.6771 44.7917H13.9479C11.1 44.7917 8.80208 44.7917 6.99583 44.55C5.12083 44.2958 3.54167 43.7583 2.2875 42.5042C1.03333 41.25 0.495834 39.6708 0.24375 37.7958C2.17309e-07 35.9896 0 33.6917 0 30.8438V18.1146C0 15.2667 2.17309e-07 12.9688 0.24375 11.1625C0.49375 9.2875 1.03542 7.70833 2.2875 6.45417C3.38125 5.36042 4.725 4.80833 6.30417 4.51875C7.47917 4.30208 8.85417 4.22083 10.4437 4.1875ZM10.4479 7.3125C8.95208 7.34583 7.79792 7.42083 6.86875 7.59167C5.68958 7.80833 5.00417 8.15833 4.49792 8.66458C3.92083 9.24167 3.54583 10.05 3.33958 11.5813C3.12917 13.1521 3.125 15.2396 3.125 18.2292V30.7292C3.125 33.7188 3.12917 35.8042 3.33958 37.3792C3.54583 38.9083 3.92292 39.7167 4.49792 40.2938C5.075 40.8708 5.88333 41.2458 7.41458 41.4521C8.98542 41.6625 11.0729 41.6667 14.0625 41.6667H26.5625C29.5521 41.6667 31.6375 41.6625 33.2125 41.4521C34.7417 41.2458 35.55 40.8688 36.1271 40.2938C36.7042 39.7167 37.0792 38.9083 37.2854 37.3771C37.4958 35.8042 37.5 33.7188 37.5 30.7292V18.2292C37.5 15.2396 37.4958 13.1521 37.2854 11.5792C37.0792 10.05 36.7021 9.24167 36.1271 8.66458C35.6187 8.15833 34.9354 7.81042 33.7562 7.59167C32.8271 7.42083 31.6729 7.34583 30.1771 7.31458C30.0438 8.45594 29.4959 9.50857 28.6375 10.2725C27.7791 11.0364 26.6699 11.4584 25.5208 11.4583H15.1042C13.9547 11.4584 12.8454 11.0361 11.9869 10.2717C11.1284 9.50737 10.5807 8.45423 10.4479 7.3125ZM15.1042 3.125C14.6898 3.125 14.2923 3.28962 13.9993 3.58265C13.7063 3.87567 13.5417 4.2731 13.5417 4.6875V6.77083C13.5417 7.63333 14.2417 8.33333 15.1042 8.33333H25.5208C25.9352 8.33333 26.3327 8.16871 26.6257 7.87569C26.9187 7.58266 27.0833 7.18523 27.0833 6.77083V4.6875C27.0833 4.2731 26.9187 3.87567 26.6257 3.58265C26.3327 3.28962 25.9352 3.125 25.5208 3.125H15.1042ZM8.33333 19.2708C8.33333 18.8564 8.49795 18.459 8.79098 18.166C9.084 17.873 9.48143 17.7083 9.89583 17.7083H30.7292C31.1436 17.7083 31.541 17.873 31.834 18.166C32.127 18.459 32.2917 18.8564 32.2917 19.2708C32.2917 19.6852 32.127 20.0827 31.834 20.3757C31.541 20.6687 31.1436 20.8333 30.7292 20.8333H9.89583C9.48143 20.8333 9.084 20.6687 8.79098 20.3757C8.49795 20.0827 8.33333 19.6852 8.33333 19.2708ZM10.4167 26.5625C10.4167 26.1481 10.5813 25.7507 10.8743 25.4576C11.1673 25.1646 11.5648 25 11.9792 25H28.6458C29.0602 25 29.4577 25.1646 29.7507 25.4576C30.0437 25.7507 30.2083 26.1481 30.2083 26.5625C30.2083 26.9769 30.0437 27.3743 29.7507 27.6674C29.4577 27.9604 29.0602 28.125 28.6458 28.125H11.9792C11.5648 28.125 11.1673 27.9604 10.8743 27.6674C10.5813 27.3743 10.4167 26.9769 10.4167 26.5625ZM12.5 33.8542C12.5 33.4398 12.6646 33.0423 12.9576 32.7493C13.2507 32.4563 13.6481 32.2917 14.0625 32.2917H26.5625C26.9769 32.2917 27.3743 32.4563 27.6674 32.7493C27.9604 33.0423 28.125 33.4398 28.125 33.8542C28.125 34.2686 27.9604 34.666 27.6674 34.959C27.3743 35.2521 26.9769 35.4167 26.5625 35.4167H14.0625C13.6481 35.4167 13.2507 35.2521 12.9576 34.959C12.6646 34.666 12.5 34.2686 12.5 33.8542Z" fill="black"/>
</svg>
