<svg width="24" height="23" viewBox="0 0 24 23" fill="none" xmlns="http://www.w3.org/2000/svg">
<g filter="url(#filter0_d_772_3881)">
<path d="M9 8.33333C10.1508 8.33333 11.1925 7.86667 11.9467 7.1125C12.7 6.35917 13.1667 5.3175 13.1667 4.16667C13.1667 3.01583 12.7 1.97417 11.9467 1.22083C11.1925 0.466667 10.1508 0 9 0C7.84917 0 6.8075 0.466667 6.05333 1.22083C5.3 1.97417 4.83333 3.01583 4.83333 4.16667C4.83333 5.3175 5.3 6.35917 6.05333 7.1125C6.44025 7.49954 6.89963 7.80656 7.40523 8.01603C7.91082 8.22551 8.45273 8.33333 9 8.33333ZM9 14.1667C11.9317 14.1667 14 13.3333 14 12.5C14 10.8333 12.0383 9.16667 9 9.16667C5.875 9.16667 4 10.8333 4 12.5C4 13.3333 5.875 14.1667 9 14.1667ZM19 6.66667H17.3333V5C17.3333 4.77899 17.2455 4.56702 17.0893 4.41074C16.933 4.25446 16.721 4.16667 16.5 4.16667C16.279 4.16667 16.067 4.25446 15.9107 4.41074C15.7545 4.56702 15.6667 4.77899 15.6667 5V6.66667H14C13.779 6.66667 13.567 6.75446 13.4107 6.91074C13.2545 7.06702 13.1667 7.27899 13.1667 7.5C13.1667 7.72101 13.2545 7.93297 13.4107 8.08926C13.567 8.24554 13.779 8.33333 14 8.33333H15.6667V10C15.6667 10.221 15.7545 10.433 15.9107 10.5893C16.067 10.7455 16.279 10.8333 16.5 10.8333C16.721 10.8333 16.933 10.7455 17.0893 10.5893C17.2455 10.433 17.3333 10.221 17.3333 10V8.33333H19C19.221 8.33333 19.433 8.24554 19.5893 8.08926C19.7455 7.93297 19.8333 7.72101 19.8333 7.5C19.8333 7.27899 19.7455 7.06702 19.5893 6.91074C19.433 6.75446 19.221 6.66667 19 6.66667Z" fill="white"/>
</g>
<defs>
<filter id="filter0_d_772_3881" x="0" y="0" width="23.8335" height="22.166" filterUnits="userSpaceOnUse" color-interpolation-filters="sRGB">
<feFlood flood-opacity="0" result="BackgroundImageFix"/>
<feColorMatrix in="SourceAlpha" type="matrix" values="0 0 0 0 0 0 0 0 0 0 0 0 0 0 0 0 0 0 127 0" result="hardAlpha"/>
<feOffset dy="4"/>
<feGaussianBlur stdDeviation="2"/>
<feComposite in2="hardAlpha" operator="out"/>
<feColorMatrix type="matrix" values="0 0 0 0 0 0 0 0 0 0 0 0 0 0 0 0 0 0 0.25 0"/>
<feBlend mode="normal" in2="BackgroundImageFix" result="effect1_dropShadow_772_3881"/>
<feBlend mode="normal" in="SourceGraphic" in2="effect1_dropShadow_772_3881" result="shape"/>
</filter>
</defs>
</svg>
