<svg width="12" height="9" viewBox="0 0 12 9" fill="none" xmlns="http://www.w3.org/2000/svg">
<path d="M8.16667 7.58335V8.75002H0V7.58335C0 7.58335 0 5.25002 4.08333 5.25002C8.16667 5.25002 8.16667 7.58335 8.16667 7.58335ZM6.125 2.04169C6.125 1.63788 6.00526 1.24315 5.78092 0.907399C5.55658 0.571649 5.23771 0.309963 4.86465 0.155434C4.49158 0.000905273 4.08107 -0.0395265 3.68502 0.0392516C3.28898 0.11803 2.92519 0.31248 2.63966 0.598012C2.35412 0.883544 2.15967 1.24733 2.0809 1.64338C2.00212 2.03942 2.04255 2.44993 2.19708 2.823C2.35161 3.19607 2.61329 3.51493 2.94904 3.73927C3.28479 3.96361 3.67953 4.08335 4.08333 4.08335C4.62482 4.08335 5.14412 3.86825 5.52701 3.48536C5.9099 3.10248 6.125 2.58317 6.125 2.04169ZM8.13167 5.25002C8.49027 5.52754 8.7837 5.88027 8.99131 6.2834C9.19892 6.68653 9.31567 7.13025 9.33333 7.58335V8.75002H11.6667V7.58335C11.6667 7.58335 11.6667 5.46585 8.13167 5.25002ZM7.58333 2.14646e-05C7.18187 -0.00184587 6.7893 0.118165 6.4575 0.344188C6.81184 0.839284 7.00237 1.43285 7.00237 2.04169C7.00237 2.65052 6.81184 3.24409 6.4575 3.73919C6.7893 3.96521 7.18187 4.08522 7.58333 4.08335C8.12482 4.08335 8.64412 3.86825 9.02701 3.48536C9.4099 3.10248 9.625 2.58317 9.625 2.04169C9.625 1.5002 9.4099 0.980899 9.02701 0.598012C8.64412 0.215125 8.12482 2.14646e-05 7.58333 2.14646e-05Z" fill="white"/>
</svg>
