<svg width="22" height="20" viewBox="0 0 22 20" fill="none" xmlns="http://www.w3.org/2000/svg">
<path d="M18.8 19.8L14.6 15.65C14.0167 15.8333 13.4293 15.971 12.838 16.063C12.2467 16.155 11.634 16.2007 11 16.2C8.48333 16.2 6.24167 15.5043 4.275 14.113C2.30833 12.7217 0.883333 10.9173 0 8.7C0.35 7.81667 0.791667 6.99567 1.325 6.237C1.85833 5.47833 2.46667 4.79933 3.15 4.2L0.4 1.4L1.8 0L20.2 18.4L18.8 19.8ZM11 13.2C11.1833 13.2 11.3543 13.1917 11.513 13.175C11.6717 13.1583 11.8423 13.125 12.025 13.075L6.625 7.675C6.575 7.85833 6.54167 8.02933 6.525 8.188C6.50833 8.34667 6.5 8.51733 6.5 8.7C6.5 9.95 6.93767 11.0127 7.813 11.888C8.68833 12.7633 9.75067 13.2007 11 13.2ZM18.3 13.65L15.125 10.5C15.2417 10.2167 15.3333 9.92933 15.4 9.638C15.4667 9.34667 15.5 9.034 15.5 8.7C15.5 7.45 15.0627 6.38767 14.188 5.513C13.3133 4.63833 12.2507 4.20067 11 4.2C10.6667 4.2 10.3543 4.23333 10.063 4.3C9.77167 4.36667 9.484 4.46667 9.2 4.6L6.65 2.05C7.33333 1.76667 8.03333 1.55433 8.75 1.413C9.46667 1.27167 10.2167 1.20067 11 1.2C13.5167 1.2 15.7583 1.896 17.725 3.288C19.6917 4.68 21.1167 6.484 22 8.7C21.6167 9.68333 21.1123 10.596 20.487 11.438C19.8617 12.28 19.1327 13.0173 18.3 13.65ZM13.675 9.05L10.675 6.05C11.1417 5.96667 11.571 6.00433 11.963 6.163C12.355 6.32167 12.6923 6.55067 12.975 6.85C13.2577 7.14933 13.462 7.49533 13.588 7.888C13.714 8.28067 13.743 8.668 13.675 9.05Z" fill="#C2C2C2"/>
</svg>
